<svg width="173" height="168" viewBox="0 0 173 168" fill="none" xmlns="http://www.w3.org/2000/svg">
<path fill-rule="evenodd" clip-rule="evenodd" d="M91.1118 66.4322C97.1957 70.5353 99.4594 77.8925 99.4594 81.9956C99.4594 99.6811 86.3014 105.199 70.0306 105.199H35.3669C33.8105 105.199 32.5372 104.067 32.5372 102.511V42.6628C32.5372 41.1065 31.2638 39.8331 29.7075 39.8331H27.0193C25.4629 39.8331 24.3311 38.7012 24.3311 37.1449V29.2218C24.3311 27.6654 25.4629 26.3921 27.0193 26.3921H70.0306C85.5939 26.3921 97.1957 33.3248 97.1957 49.3126C97.1957 53.9816 95.3564 58.6506 91.1118 61.9047C89.5555 63.1781 89.5555 65.4418 91.1118 66.4322ZM47.2516 55.255C47.2516 56.8113 48.3835 58.0846 49.9398 58.0846H70.0306C79.3686 58.0846 82.3398 54.1231 82.3398 49.5956C82.3398 45.917 80.7835 39.8331 70.0306 39.8331H49.9398C48.3835 39.8331 47.2516 41.1065 47.2516 42.6628V55.255ZM70.0306 91.3335C76.1145 91.3335 84.745 89.3528 84.745 81.9956C84.745 74.7798 78.0952 71.1012 70.0306 71.1012H49.9398C48.3835 71.1012 47.2516 72.3746 47.2516 73.9309V88.6453C47.2516 90.2017 48.3835 91.3335 49.9398 91.3335H70.0306Z" fill="#FFEEEE"/>
<path fill-rule="evenodd" clip-rule="evenodd" d="M103.536 47.19C103.536 62.2644 114.714 67.5968 125.789 67.6993C136.966 67.8019 148.349 61.9567 148.349 47.19C148.349 32.4233 136.966 26.6807 125.686 26.6807C114.509 26.6807 103.536 32.1157 103.536 47.19ZM113.483 47.19C113.483 38.7812 119.738 36.8328 125.686 36.7303C131.736 36.5252 138.504 38.7812 138.504 47.19C138.504 55.5989 131.736 57.7523 125.686 57.6498C119.841 57.5472 113.483 55.5989 113.483 47.19Z" fill="#FFEEEE"/>
<path d="M144.682 101.521C145.48 100.724 145.553 99.346 144.755 98.5484L134.567 88.3606L144.683 78.2452C145.553 77.3751 145.553 76.0699 144.683 75.1997L140.622 71.1391C139.824 70.3415 138.447 70.2689 137.576 71.1391L127.461 81.2545L117.346 71.1391C116.476 70.2689 115.098 70.3415 114.3 71.1391L110.24 75.1997C109.369 76.0699 109.369 77.3751 110.24 78.2452L120.355 88.3606L110.167 98.5484C109.37 99.346 109.442 100.724 110.24 101.521L114.3 105.582C115.17 106.452 116.476 106.452 117.273 105.654L127.461 95.4667L137.649 105.654C138.447 106.452 139.752 106.452 140.622 105.582L144.682 101.521Z" fill="#FFEEEE"/>
<path d="M42.9672 121.655C43.3905 122.435 43.6022 123.694 43.6022 125.431H48.4151C48.4151 124.563 48.3482 123.638 48.2145 122.657C48.1031 121.655 47.8023 120.73 47.3121 119.883C46.8219 119.014 46.0755 118.301 45.0728 117.744C44.0924 117.187 42.7444 116.909 41.0287 116.909C39.2239 116.909 37.7867 117.221 36.7172 117.845C35.6476 118.446 34.8232 119.293 34.2439 120.385C33.6869 121.476 33.3192 122.791 33.141 124.329C32.985 125.844 32.907 127.504 32.907 129.309C32.907 131.136 32.985 132.807 33.141 134.322C33.3192 135.837 33.6869 137.141 34.2439 138.232C34.8232 139.324 35.6476 140.16 36.7172 140.739C37.7867 141.318 39.2239 141.608 41.0287 141.608C42.6107 141.608 43.8919 141.363 44.8723 140.873C45.875 140.383 46.6437 139.703 47.1784 138.834C47.7355 137.965 48.1143 136.951 48.3148 135.792C48.5153 134.634 48.6156 133.408 48.6156 132.116H43.8028C43.8028 133.408 43.7248 134.456 43.5688 135.258C43.4128 136.038 43.2012 136.65 42.9338 137.096C42.6664 137.519 42.3433 137.809 41.9645 137.965C41.608 138.099 41.2181 138.165 40.7947 138.165C40.2822 138.165 39.8255 138.065 39.4244 137.865C39.0456 137.642 38.7225 137.23 38.4551 136.628C38.21 136.004 38.0207 135.135 37.887 134.021C37.7756 132.907 37.7198 131.448 37.7198 129.643C37.7198 127.949 37.7644 126.523 37.8535 125.365C37.9427 124.184 38.0986 123.237 38.3215 122.524C38.5443 121.788 38.8451 121.265 39.2239 120.953C39.6249 120.619 40.1263 120.452 40.7279 120.452C41.8197 120.452 42.5661 120.853 42.9672 121.655Z" fill="#FFEEEE"/>
<path d="M51.7017 117.377H56.5146V126.501H62.1296V117.377H66.9424V141.24H62.1296V130.645H56.5146V141.24H51.7017V117.377Z" fill="#FFEEEE"/>
<path fill-rule="evenodd" clip-rule="evenodd" d="M81.2102 117.377H75.261L68.9442 141.24H73.9575L75.0605 136.194H81.4108L82.5137 141.24H87.5271L81.2102 117.377ZM78.2691 121.521L80.5752 132.25H75.896L78.2022 121.521H78.2691Z" fill="#FFEEEE"/>
<path d="M89.6291 117.377H96.7815L100.191 134.222H100.257L103.7 117.377H110.819V141.24H106.407V122.189H106.34L102.096 141.24H98.3524L94.1077 122.189H94.0409V141.24H89.6291V117.377Z" fill="#FFEEEE"/>
<path fill-rule="evenodd" clip-rule="evenodd" d="M123.034 117.377H114.611V141.24H119.424V131.715H121.998C123.134 131.715 124.17 131.57 125.106 131.28C126.042 130.991 126.833 130.556 127.479 129.977C128.147 129.398 128.66 128.651 129.016 127.738C129.395 126.824 129.585 125.755 129.585 124.529C129.585 123.638 129.473 122.769 129.25 121.922C129.027 121.053 128.66 120.284 128.147 119.616C127.635 118.948 126.955 118.413 126.109 118.012C125.284 117.588 124.259 117.377 123.034 117.377ZM121.563 128.172H119.424V120.919H121.429C122.633 120.919 123.49 121.231 124.003 121.855C124.515 122.479 124.772 123.393 124.772 124.596C124.772 125.821 124.471 126.724 123.869 127.303C123.29 127.882 122.521 128.172 121.563 128.172Z" fill="#FFEEEE"/>
<path d="M136.161 133.787V134.489C136.161 135.046 136.206 135.559 136.295 136.026C136.384 136.472 136.551 136.851 136.796 137.163C137.042 137.475 137.365 137.72 137.766 137.898C138.189 138.076 138.713 138.165 139.337 138.165C140.072 138.165 140.729 137.932 141.309 137.464C141.91 136.973 142.211 136.227 142.211 135.224C142.211 134.69 142.133 134.233 141.977 133.854C141.843 133.453 141.609 133.096 141.275 132.784C140.941 132.473 140.495 132.194 139.938 131.949C139.403 131.682 138.735 131.414 137.933 131.147C136.863 130.79 135.939 130.4 135.159 129.977C134.379 129.554 133.722 129.063 133.187 128.506C132.674 127.927 132.296 127.27 132.05 126.534C131.805 125.777 131.683 124.908 131.683 123.927C131.683 121.566 132.34 119.805 133.655 118.647C134.969 117.488 136.774 116.909 139.069 116.909C140.139 116.909 141.119 117.031 142.01 117.276C142.924 117.499 143.704 117.878 144.35 118.413C145.018 118.925 145.531 119.594 145.887 120.418C146.266 121.22 146.456 122.189 146.456 123.326V123.994H141.843C141.843 122.858 141.643 121.989 141.242 121.387C140.841 120.763 140.172 120.452 139.236 120.452C138.702 120.452 138.256 120.53 137.899 120.685C137.543 120.841 137.253 121.053 137.03 121.321C136.83 121.566 136.685 121.855 136.596 122.189C136.529 122.524 136.496 122.869 136.496 123.226C136.496 123.961 136.652 124.585 136.964 125.097C137.276 125.587 137.944 126.044 138.969 126.468L142.679 128.072C143.592 128.473 144.339 128.896 144.918 129.342C145.498 129.765 145.954 130.233 146.289 130.746C146.645 131.236 146.89 131.782 147.024 132.383C147.157 132.985 147.224 133.653 147.224 134.389C147.224 136.907 146.489 138.745 145.018 139.903C143.57 141.04 141.542 141.608 138.936 141.608C136.217 141.608 134.268 141.018 133.087 139.837C131.928 138.656 131.349 136.962 131.349 134.756V133.787H136.161Z" fill="#FFEEEE"/>
<path fill-rule="evenodd" clip-rule="evenodd" d="M0 0H172.679V168H0V0ZM7.59604 7.59604H165.083V160.404H7.59604V7.59604Z" fill="#FFEEEE"/>
</svg>
